<svg width="400" height="400" viewBox="0 0 400 400" fill="none" xmlns="http://www.w3.org/2000/svg">
<g filter="url(#filter0_f_1029_2855)">
<circle cx="200" cy="200" r="50" fill="#D8231D"/>
</g>
<g clip-path="url(#clip0_1029_2855)">
<path d="M124.183 214.988C121.32 200.635 130.635 186.68 144.988 183.817L243.057 164.26C257.41 161.398 271.366 170.713 274.228 185.066C277.09 199.419 267.775 213.374 253.423 216.237L155.354 235.794C141.001 238.656 127.045 229.341 124.183 214.988Z" fill="#1D1D1D" fill-opacity="0.05"/>
<path d="M124.183 214.988C121.32 200.635 130.635 186.68 144.988 183.817L243.057 164.26C257.41 161.398 271.366 170.713 274.228 185.066C277.09 199.419 267.775 213.374 253.423 216.237L155.354 235.794C141.001 238.656 127.045 229.341 124.183 214.988Z" fill="#D8231D" fill-opacity="0.2"/>
<path d="M151.073 218.293L147.651 201.131L154.074 199.85C155.463 199.573 156.663 199.58 157.673 199.872C158.683 200.163 159.488 200.665 160.089 201.378C160.69 202.091 161.093 202.962 161.299 203.992C161.488 204.94 161.45 205.857 161.184 206.742C160.919 207.628 160.379 208.416 159.565 209.105C158.748 209.778 157.628 210.256 156.206 210.539L153.092 211.16L154.383 217.633L151.073 218.293ZM152.559 208.488L155.477 207.906C156.539 207.694 157.252 207.306 157.615 206.741C157.991 206.156 158.1 205.463 157.94 204.662C157.77 203.812 157.403 203.205 156.838 202.842C156.286 202.46 155.478 202.374 154.416 202.586L151.498 203.168L152.559 208.488ZM166.06 215.304L162.539 197.652L165.849 196.992L169.369 214.644L166.06 215.304ZM176.822 213.464C175.793 213.669 174.91 213.675 174.175 213.482C173.436 213.272 172.848 212.922 172.41 212.432C171.986 211.922 171.705 211.323 171.568 210.637C171.418 209.885 171.474 209.186 171.736 208.539C172.014 207.888 172.505 207.323 173.208 206.843C173.927 206.36 174.875 206.001 176.052 205.766L179.117 205.155C178.996 204.55 178.815 204.068 178.573 203.708C178.328 203.332 178.015 203.08 177.632 202.953C177.25 202.825 176.773 202.818 176.201 202.932C175.58 203.056 175.076 203.301 174.69 203.667C174.317 204.013 174.137 204.474 174.15 205.049L170.938 205.69C170.844 204.791 170.979 203.974 171.342 203.238C171.718 202.484 172.279 201.845 173.025 201.322C173.786 200.796 174.674 200.432 175.687 200.23C176.848 199.999 177.892 199.995 178.82 200.217C179.749 200.44 180.515 200.874 181.119 201.518C181.723 202.162 182.133 203.024 182.348 204.102L183.874 211.752L181.079 212.309L180.335 210.495C180.22 210.857 180.066 211.194 179.873 211.504C179.68 211.815 179.44 212.101 179.152 212.362C178.864 212.623 178.526 212.844 178.137 213.023C177.751 213.219 177.313 213.366 176.822 213.464ZM177.099 210.758C177.523 210.673 177.885 210.524 178.182 210.312C178.493 210.08 178.745 209.809 178.938 209.499C179.128 209.172 179.254 208.824 179.316 208.455C179.391 208.066 179.413 207.662 179.38 207.244L179.375 207.219L176.85 207.723C176.343 207.824 175.94 207.972 175.639 208.168C175.351 208.344 175.157 208.562 175.055 208.82C174.954 209.078 174.932 209.354 174.991 209.648C175.056 209.975 175.183 210.23 175.373 210.414C175.562 210.597 175.807 210.718 176.108 210.777C176.409 210.836 176.739 210.829 177.099 210.758ZM186.961 211.136L184.497 198.779L187.415 198.198L188.061 200.159C188.3 199.398 188.72 198.736 189.322 198.174C189.94 197.609 190.731 197.23 191.696 197.038C192.725 196.833 193.634 196.872 194.422 197.157C195.209 197.442 195.864 197.957 196.387 198.703C196.926 199.445 197.314 200.413 197.552 201.606L198.975 208.74L195.69 209.395L194.33 202.58C194.135 201.599 193.772 200.89 193.243 200.451C192.73 200.01 192.041 199.875 191.174 200.048C190.619 200.159 190.146 200.389 189.757 200.739C189.384 201.085 189.124 201.528 188.977 202.067C188.826 202.59 188.819 203.194 188.956 203.881L190.271 210.476L186.961 211.136ZM202.093 208.118L199.629 195.762L202.547 195.18L203.193 197.141C203.432 196.38 203.852 195.718 204.454 195.156C205.072 194.591 205.863 194.213 206.827 194.02C207.857 193.815 208.766 193.855 209.553 194.14C210.341 194.424 210.996 194.939 211.519 195.685C212.057 196.427 212.446 197.395 212.684 198.588L214.107 205.723L210.821 206.378L209.462 199.562C209.266 198.581 208.904 197.872 208.375 197.434C207.862 196.992 207.172 196.858 206.306 197.03C205.75 197.141 205.278 197.371 204.889 197.721C204.516 198.067 204.256 198.51 204.108 199.049C203.958 199.572 203.951 200.177 204.088 200.863L205.403 207.458L202.093 208.118ZM217.298 205.086L214.834 192.729L218.144 192.069L220.608 204.426L217.298 205.086ZM216.164 190.705C215.576 190.823 215.051 190.749 214.59 190.484C214.143 190.199 213.865 189.787 213.758 189.248C213.65 188.708 213.75 188.23 214.057 187.811C214.378 187.374 214.832 187.096 215.421 186.979C216.026 186.858 216.552 186.94 216.999 187.225C217.46 187.49 217.744 187.892 217.852 188.431C217.959 188.971 217.853 189.459 217.532 189.897C217.225 190.315 216.769 190.585 216.164 190.705ZM223.953 203.759L221.489 191.402L224.406 190.821L225.052 192.782C225.291 192.021 225.712 191.359 226.313 190.797C226.931 190.232 227.723 189.853 228.687 189.661C229.717 189.456 230.625 189.495 231.413 189.78C232.201 190.065 232.856 190.58 233.378 191.326C233.917 192.068 234.305 193.036 234.543 194.229L235.966 201.363L232.681 202.019L231.322 195.203C231.126 194.222 230.764 193.513 230.234 193.074C229.721 192.633 229.032 192.498 228.166 192.671C227.61 192.782 227.137 193.012 226.748 193.362C226.375 193.708 226.115 194.151 225.968 194.69C225.817 195.213 225.81 195.817 225.947 196.504L227.263 203.099L223.953 203.759ZM245.539 205.369C244.362 205.603 243.303 205.661 242.362 205.543C241.424 205.441 240.651 205.145 240.043 204.655C239.455 204.177 239.076 203.513 238.907 202.663C238.793 202.091 238.832 201.523 239.026 200.957C239.219 200.392 239.552 199.849 240.027 199.33C240.514 198.791 241.153 198.29 241.945 197.826L243.518 199.195C242.815 199.59 242.327 200.001 242.056 200.429C241.804 200.871 241.72 201.304 241.805 201.729C241.88 202.104 242.066 202.399 242.363 202.611C242.677 202.821 243.058 202.94 243.506 202.97C243.973 203.013 244.476 202.98 245.016 202.873C245.539 202.768 245.975 202.613 246.325 202.408C246.691 202.199 246.955 201.942 247.115 201.638C247.295 201.348 247.351 201.03 247.282 200.687C247.194 200.246 246.967 199.917 246.601 199.701C246.235 199.485 245.58 199.438 244.635 199.558C243.789 199.659 243.027 199.717 242.35 199.733C241.687 199.73 241.094 199.695 240.571 199.629C240.044 199.547 239.589 199.434 239.203 199.29C238.834 199.143 238.522 198.984 238.267 198.814L238.154 198.25L240.215 194.908L242.745 195.193L240.262 198.85L240.871 197.046C241.071 197.108 241.262 197.172 241.445 197.237C241.641 197.283 241.878 197.321 242.156 197.35C242.43 197.364 242.786 197.361 243.224 197.341C243.662 197.322 244.213 197.271 244.877 197.19C245.975 197.073 246.898 197.101 247.647 197.275C248.412 197.445 249.01 197.76 249.441 198.217C249.869 198.659 250.158 199.256 250.308 200.007C250.454 200.743 250.387 201.47 250.105 202.189C249.844 202.921 249.335 203.566 248.58 204.125C247.827 204.7 246.814 205.114 245.539 205.369ZM243.676 196.027C242.647 196.233 241.717 196.214 240.887 195.972C240.07 195.71 239.39 195.285 238.848 194.696C238.318 194.088 237.971 193.367 237.804 192.533C237.638 191.7 237.684 190.909 237.943 190.16C238.215 189.392 238.678 188.731 239.332 188.176C240.002 187.617 240.852 187.235 241.882 187.03C242.928 186.821 243.859 186.848 244.676 187.11C245.51 187.368 246.191 187.802 246.72 188.41C247.246 189.002 247.592 189.715 247.758 190.548C247.925 191.382 247.88 192.181 247.625 192.946C247.366 193.694 246.902 194.348 246.231 194.906C245.574 195.445 244.722 195.819 243.676 196.027ZM243.173 193.502C243.81 193.375 244.292 193.109 244.619 192.704C244.947 192.299 245.046 191.777 244.919 191.14C244.792 190.503 244.5 190.059 244.042 189.811C243.582 189.546 243.033 189.477 242.395 189.604C241.774 189.728 241.293 190.002 240.953 190.427C240.626 190.832 240.526 191.353 240.653 191.991C240.78 192.628 241.073 193.071 241.53 193.32C242.004 193.565 242.552 193.626 243.173 193.502ZM244.469 189.267L243.461 187.021L248.536 186.009L248.927 187.97L244.469 189.267Z" fill="url(#paint0_linear_1029_2855)"/>
</g>
<path d="M124.673 214.89C121.865 200.808 131.004 187.116 145.086 184.308L243.155 164.75C257.237 161.942 270.929 171.081 273.738 185.164C276.546 199.246 267.407 212.938 253.325 215.746L155.256 235.304C141.174 238.112 127.481 228.973 124.673 214.89Z" stroke="url(#paint1_linear_1029_2855)"/>
<path d="M291.569 230.376L291.567 230.376C290.353 230.62 289.329 231.411 288.786 232.524L288.785 232.526L287.095 236.029C287.095 236.029 287.095 236.029 287.095 236.029C285.849 238.603 282.044 238.069 281.558 235.266C281.558 235.266 281.558 235.265 281.558 235.265L281.266 233.546L281.266 233.546L281.266 233.543C281.244 233.421 281.264 233.289 281.325 233.173C281.325 233.173 281.326 233.172 281.326 233.172L287.844 220.94C287.844 220.939 287.844 220.939 287.844 220.938C287.992 220.667 288.32 220.562 288.588 220.686L288.59 220.687L296.03 224.088L296.031 224.089C298.627 225.269 298.179 229.078 295.387 229.626L291.569 230.376Z" fill="#D8231D" fill-opacity="0.2" stroke="url(#paint2_linear_1029_2855)"/>
<path d="M285.607 219.984L285.606 219.985L281.332 227.998L281.332 227.999C281.075 228.481 280.352 228.36 280.262 227.828L280.261 227.826L279.141 221.401L279.141 221.401C278.734 219.07 281.1 217.242 283.252 218.225C283.252 218.225 283.252 218.225 283.253 218.226L285.342 219.184C285.641 219.328 285.76 219.698 285.607 219.984Z" fill="#D8231D" fill-opacity="0.2" stroke="url(#paint3_linear_1029_2855)"/>
<defs>
<filter id="filter0_f_1029_2855" x="0" y="0" width="400" height="400" filterUnits="userSpaceOnUse" color-interpolation-filters="sRGB">
<feFlood flood-opacity="0" result="BackgroundImageFix"/>
<feBlend mode="normal" in="SourceGraphic" in2="BackgroundImageFix" result="shape"/>
<feGaussianBlur stdDeviation="75" result="effect1_foregroundBlur_1029_2855"/>
</filter>
<linearGradient id="paint0_linear_1029_2855" x1="152.183" y1="209.671" x2="248.168" y2="190.53" gradientUnits="userSpaceOnUse">
<stop stop-color="#C8C8C8"/>
<stop offset="1" stop-color="#878787"/>
</linearGradient>
<linearGradient id="paint1_linear_1029_2855" x1="129.347" y1="240.886" x2="279.886" y2="204.593" gradientUnits="userSpaceOnUse">
<stop stop-color="white" stop-opacity="0.1"/>
<stop offset="1" stop-color="#666666" stop-opacity="0.8"/>
</linearGradient>
<linearGradient id="paint2_linear_1029_2855" x1="283.81" y1="239.58" x2="299.569" y2="226.862" gradientUnits="userSpaceOnUse">
<stop stop-color="white" stop-opacity="0.1"/>
<stop offset="1" stop-color="#666666" stop-opacity="0.8"/>
</linearGradient>
<linearGradient id="paint3_linear_1029_2855" x1="280.621" y1="229.228" x2="288.885" y2="222.637" gradientUnits="userSpaceOnUse">
<stop stop-color="white" stop-opacity="0.1"/>
<stop offset="1" stop-color="#666666" stop-opacity="0.8"/>
</linearGradient>
<clipPath id="clip0_1029_2855">
<path d="M124.183 214.988C121.32 200.635 130.635 186.68 144.988 183.817L243.057 164.26C257.41 161.398 271.366 170.713 274.228 185.066C277.09 199.419 267.775 213.374 253.423 216.237L155.354 235.794C141.001 238.656 127.045 229.341 124.183 214.988Z" fill="white"/>
</clipPath>
</defs>
</svg>
