<svg width="355" height="400" viewBox="0 0 355 400" fill="none" xmlns="http://www.w3.org/2000/svg">
<g filter="url(#filter0_f_1029_2872)">
<circle cx="155" cy="200" r="50" fill="white"/>
</g>
<g clip-path="url(#clip0_1029_2872)">
<path d="M105.379 238.832C96.3331 227.327 98.3269 210.667 109.832 201.621L167.219 156.502C178.725 147.456 195.385 149.45 204.43 160.955C213.476 172.461 211.482 189.121 199.977 198.166L142.59 243.286C131.085 252.331 114.425 250.338 105.379 238.832Z" fill="#1D1D1D" fill-opacity="0.05"/>
<path d="M105.379 238.832C96.3331 227.327 98.3269 210.667 109.832 201.621L167.219 156.502C178.725 147.456 195.385 149.45 204.43 160.955C213.476 172.461 211.482 189.121 199.977 198.166L142.59 243.286C131.085 252.331 114.425 250.338 105.379 238.832Z" fill="white" fill-opacity="0.2"/>
<path d="M135.777 226.126C134.781 226.909 133.757 227.439 132.703 227.717C131.662 227.984 130.655 227.97 129.681 227.676C128.72 227.371 127.868 226.758 127.123 225.838L129.934 223.629C130.266 224.025 130.66 224.309 131.114 224.482C131.568 224.655 132.042 224.706 132.537 224.635C133.035 224.54 133.527 224.302 134.012 223.921C134.431 223.591 134.74 223.243 134.938 222.875C135.139 222.483 135.227 222.096 135.202 221.713C135.176 221.33 135.03 220.969 134.762 220.628C134.453 220.235 134.097 219.985 133.694 219.877C133.305 219.759 132.868 219.743 132.383 219.827C131.911 219.901 131.396 220.041 130.837 220.247C130.281 220.43 129.694 220.627 129.075 220.838C127.709 221.339 126.507 221.521 125.467 221.385C124.44 221.238 123.545 220.68 122.783 219.711C122.134 218.885 121.774 218.023 121.704 217.125C121.646 216.216 121.848 215.326 122.308 214.455C122.768 213.585 123.45 212.794 124.354 212.083C125.285 211.352 126.226 210.877 127.178 210.658C128.132 210.416 129.05 210.437 129.93 210.721C130.823 210.994 131.595 211.531 132.247 212.333L129.417 214.558C129.167 214.267 128.854 214.058 128.477 213.93C128.104 213.778 127.711 213.737 127.299 213.806C126.877 213.863 126.47 214.045 126.077 214.354C125.726 214.609 125.452 214.909 125.257 215.253C125.074 215.587 124.991 215.939 125.006 216.309C125.024 216.656 125.167 216.999 125.434 217.34C125.692 217.667 125.987 217.881 126.319 217.98C126.665 218.069 127.048 218.085 127.471 218.029C127.882 217.959 128.342 217.842 128.848 217.677C129.344 217.499 129.878 217.302 130.45 217.085C131.317 216.786 132.167 216.573 133.001 216.447C133.825 216.308 134.608 216.36 135.35 216.604C136.093 216.847 136.793 217.388 137.453 218.226C138.019 218.947 138.355 219.764 138.459 220.679C138.563 221.593 138.404 222.524 137.982 223.47C137.574 224.407 136.839 225.292 135.777 226.126ZM146.057 224.659L134.87 210.43L137.228 208.576L138.605 209.72C138.588 209.267 138.63 208.809 138.733 208.347C138.826 207.871 139.012 207.407 139.292 206.954C139.574 206.477 139.984 206.028 140.521 205.605C141.452 204.874 142.451 204.459 143.519 204.362C144.587 204.264 145.633 204.448 146.657 204.915C147.684 205.359 148.589 206.078 149.372 207.074C150.155 208.07 150.646 209.125 150.845 210.241C151.033 211.344 150.949 212.396 150.591 213.398C150.234 214.4 149.603 215.256 148.699 215.967C147.966 216.543 147.227 216.912 146.484 217.072C145.744 217.209 145.018 217.176 144.306 216.972L148.71 222.573L146.057 224.659ZM146.247 214.142C146.771 213.73 147.137 213.251 147.345 212.707C147.566 212.151 147.617 211.57 147.5 210.963C147.383 210.355 147.103 209.77 146.66 209.206C146.217 208.643 145.714 208.233 145.151 207.975C144.578 207.705 143.996 207.612 143.405 207.695C142.816 207.755 142.259 207.991 141.735 208.403C141.224 208.805 140.864 209.29 140.653 209.858C140.446 210.403 140.394 210.985 140.498 211.602C140.615 212.21 140.895 212.795 141.338 213.359C141.781 213.922 142.289 214.339 142.862 214.609C143.438 214.856 144.015 214.943 144.593 214.87C145.185 214.786 145.736 214.544 146.247 214.142ZM160.477 206.707C159.481 207.49 158.432 207.975 157.329 208.164C156.23 208.329 155.165 208.202 154.135 207.782C153.108 207.338 152.198 206.612 151.405 205.603C150.591 204.568 150.084 203.493 149.886 202.377C149.69 201.238 149.796 200.147 150.206 199.104C150.605 198.048 151.31 197.123 152.318 196.33C153.301 195.557 154.329 195.099 155.403 194.954C156.477 194.81 157.505 194.945 158.488 195.359C159.471 195.774 160.328 196.446 161.06 197.376C161.163 197.507 161.281 197.658 161.415 197.828C161.539 197.985 161.654 198.159 161.762 198.35L153.724 204.67L152.457 203.059L157.861 198.809C157.317 198.198 156.691 197.874 155.984 197.837C155.289 197.789 154.634 198.008 154.018 198.492C153.573 198.842 153.242 199.271 153.027 199.78C152.802 200.275 152.743 200.82 152.849 201.414C152.969 201.998 153.282 202.611 153.787 203.253L154.235 203.823C154.657 204.36 155.126 204.755 155.642 205.006C156.161 205.235 156.691 205.316 157.233 205.25C157.765 205.171 158.273 204.942 158.758 204.56C159.242 204.179 159.56 203.76 159.709 203.303C159.872 202.836 159.903 202.377 159.803 201.926L162.515 199.794C162.816 200.554 162.946 201.352 162.905 202.19C162.864 203.028 162.642 203.838 162.24 204.621C161.838 205.404 161.25 206.099 160.477 206.707ZM172.3 197.412C171.304 198.194 170.255 198.68 169.152 198.869C168.052 199.034 166.987 198.906 165.957 198.486C164.93 198.043 164.02 197.317 163.227 196.308C162.413 195.273 161.907 194.198 161.708 193.082C161.512 191.943 161.619 190.852 162.029 189.809C162.428 188.753 163.132 187.828 164.141 187.035C165.124 186.262 166.152 185.804 167.225 185.659C168.299 185.515 169.327 185.65 170.31 186.064C171.294 186.478 172.151 187.151 172.882 188.081C172.985 188.212 173.104 188.363 173.238 188.533C173.361 188.69 173.477 188.864 173.584 189.055L165.546 195.375L164.279 193.763L169.684 189.514C169.14 188.903 168.514 188.579 167.806 188.542C167.112 188.494 166.457 188.712 165.841 189.197C165.395 189.547 165.065 189.976 164.85 190.484C164.624 190.98 164.565 191.525 164.672 192.119C164.792 192.703 165.104 193.316 165.609 193.958L166.057 194.528C166.48 195.065 166.949 195.46 167.465 195.711C167.983 195.94 168.514 196.021 169.056 195.955C169.587 195.876 170.095 195.646 170.58 195.265C171.065 194.884 171.382 194.465 171.532 194.008C171.695 193.541 171.726 193.082 171.625 192.631L174.338 190.498C174.638 191.258 174.768 192.057 174.727 192.895C174.686 193.733 174.465 194.543 174.062 195.326C173.66 196.109 173.073 196.804 172.3 197.412ZM183.768 188.394C182.864 189.105 181.877 189.521 180.806 189.642C179.748 189.753 178.707 189.575 177.683 189.108C176.659 188.642 175.76 187.917 174.988 186.934C174.195 185.925 173.697 184.875 173.496 183.782C173.297 182.667 173.383 181.603 173.753 180.591C174.126 179.555 174.765 178.682 175.669 177.971C176.376 177.415 177.102 177.057 177.845 176.896C178.588 176.736 179.314 176.77 180.023 176.997L175.681 171.474L178.334 169.388L189.459 183.539L187.101 185.393L185.74 184.269C185.76 184.698 185.717 185.156 185.611 185.642C185.519 186.117 185.326 186.587 185.033 187.05C184.74 187.514 184.319 187.962 183.768 188.394ZM182.574 185.581C183.098 185.169 183.464 184.69 183.672 184.146C183.882 183.577 183.929 182.989 183.811 182.382C183.694 181.774 183.414 181.189 182.971 180.626C182.528 180.062 182.025 179.652 181.463 179.395C180.9 179.137 180.323 179.051 179.731 179.134C179.143 179.194 178.586 179.43 178.062 179.842C177.564 180.234 177.21 180.714 177 181.282C176.779 181.837 176.72 182.424 176.825 183.041C176.942 183.649 177.217 184.228 177.649 184.778C178.103 185.354 178.611 185.771 179.173 186.029C179.749 186.276 180.331 186.369 180.92 186.309C181.512 186.225 182.063 185.983 182.574 185.581Z" fill="url(#paint0_linear_1029_2872)"/>
</g>
<path d="M105.772 238.523C96.8968 227.235 98.853 210.889 110.141 202.014L167.528 156.895C178.816 148.02 195.162 149.976 204.037 161.264C212.912 172.553 210.956 188.898 199.668 197.773L142.281 242.893C130.993 251.768 114.647 249.811 105.772 238.523Z" stroke="url(#paint1_linear_1029_2872)"/>
<path d="M114.444 278.372L114.442 278.37C113.457 277.62 112.187 277.374 110.993 277.702L110.991 277.703L107.244 278.749C107.244 278.749 107.244 278.749 107.244 278.749C104.489 279.514 102.375 276.306 104.159 274.089C104.159 274.089 104.159 274.089 104.159 274.089L105.256 272.734L105.256 272.734L105.258 272.731C105.336 272.634 105.448 272.562 105.576 272.531C105.576 272.531 105.576 272.531 105.576 272.531L119.065 269.34C119.065 269.34 119.066 269.34 119.066 269.34C119.367 269.272 119.663 269.448 119.747 269.73L119.748 269.733L122.111 277.565L122.111 277.566C122.941 280.294 119.786 282.475 117.53 280.742L114.444 278.372Z" fill="white" fill-opacity="0.2" stroke="url(#paint2_linear_1029_2872)"/>
<path d="M118.304 267.03L118.302 267.03L109.464 269.117L109.464 269.117C108.932 269.243 108.545 268.62 108.884 268.201L108.886 268.199L112.968 263.113L112.968 263.113C114.448 261.267 117.384 261.835 118.068 264.1C118.068 264.101 118.068 264.101 118.068 264.101L118.729 266.303C118.819 266.622 118.62 266.956 118.304 267.03Z" fill="white" fill-opacity="0.2" stroke="url(#paint3_linear_1029_2872)"/>
<defs>
<filter id="filter0_f_1029_2872" x="-45" y="0" width="400" height="400" filterUnits="userSpaceOnUse" color-interpolation-filters="sRGB">
<feFlood flood-opacity="0" result="BackgroundImageFix"/>
<feBlend mode="normal" in="SourceGraphic" in2="BackgroundImageFix" result="shape"/>
<feGaussianBlur stdDeviation="75" result="effect1_foregroundBlur_1029_2872"/>
</filter>
<linearGradient id="paint0_linear_1029_2872" x1="127.036" y1="222.138" x2="184.192" y2="177.2" gradientUnits="userSpaceOnUse">
<stop stop-color="#C8C8C8"/>
<stop offset="1" stop-color="#878787"/>
</linearGradient>
<linearGradient id="paint1_linear_1029_2872" x1="121.701" y1="259.592" x2="219.343" y2="177.514" gradientUnits="userSpaceOnUse">
<stop stop-color="white" stop-opacity="0.1"/>
<stop offset="1" stop-color="#666666" stop-opacity="0.8"/>
</linearGradient>
<linearGradient id="paint2_linear_1029_2872" x1="102.409" y1="278.629" x2="122.367" y2="282.054" gradientUnits="userSpaceOnUse">
<stop stop-color="white" stop-opacity="0.1"/>
<stop offset="1" stop-color="#666666" stop-opacity="0.8"/>
</linearGradient>
<linearGradient id="paint3_linear_1029_2872" x1="108.071" y1="269.396" x2="118.479" y2="271.244" gradientUnits="userSpaceOnUse">
<stop stop-color="white" stop-opacity="0.1"/>
<stop offset="1" stop-color="#666666" stop-opacity="0.8"/>
</linearGradient>
<clipPath id="clip0_1029_2872">
<path d="M105.379 238.832C96.3331 227.327 98.3269 210.667 109.832 201.621L167.219 156.502C178.725 147.456 195.385 149.45 204.43 160.955C213.476 172.461 211.482 189.121 199.977 198.166L142.59 243.286C131.085 252.331 114.425 250.338 105.379 238.832Z" fill="white"/>
</clipPath>
</defs>
</svg>
