<svg width="1440" height="350" viewBox="0 0 1440 350" fill="none" xmlns="http://www.w3.org/2000/svg">
<path d="M51.476 46.0429L-21 55.7768V272.009L51.476 262.275L87.464 259.146L164.438 267.837L243.912 276.876L299.394 280.352L461.34 267.837L522.32 261.579H558.808L602.293 272.009H635.282L701.76 267.837L781.734 261.579L844.213 267.837L945.679 261.579L1005.66 267.837L1133.62 272.009L1257.58 288L1376.54 276.876L1486 272.009V60.6438H1396.03L1333.55 64.1202L1257.58 72.1159H1192.1L1108.63 54.7339L1019.65 50.9099L925.186 45L849.211 50.9099L747.245 47.7811L641.28 54.7339H587.298L549.811 45L498.828 50.9099L343.379 63.0773H266.904L126.451 50.9099L51.476 46.0429Z" fill="white"/>
<g filter="url(#filter0_d_973_9114)">
<path d="M1445.28 47.1841C1444.51 54.9475 1425.65 52.7802 1421.22 52.6832C1409.99 50.4189 1397.38 54.8181 1386.47 51.3246C1378.45 48.5427 1371.34 45.0168 1362.96 45.3403C1355.94 51.8098 1348.34 44.0464 1341.61 46.4078C1336.95 47.637 1332.52 53.2654 1327.76 50.9041C1326.53 51.004 1325.34 51.3448 1324.24 51.9068C1323.3 51.6481 1322.85 50.9688 1321.65 54.43C1318.41 51.4216 1311.07 54.624 1307.84 54.43C1305.73 54.9937 1303.51 55.035 1301.38 54.5503C1299.25 54.0657 1297.27 53.0695 1295.61 51.6481C1291.6 49.222 1289.82 44.3698 1284.77 48.8662C1281.54 45.6314 1268.6 45.8902 1265.36 49.5778C1263.52 54.6564 1264.59 52.8126 1263.75 54.5593C1262.91 56.3061 1260.51 59.088 1258.15 58.8616C1254.43 61.0478 1250.22 62.2855 1245.91 62.466C1241.59 62.6465 1237.3 61.7642 1233.41 59.8967C1223.7 63.1315 1212.15 65.8487 1202.74 60.4466C1199.5 60.4466 1199.34 58.6351 1195.95 53.2654C1193.39 47.1517 1190.32 53.6536 1187.6 52.5861C1181.9 52.8837 1176.18 52.6345 1170.52 51.8422C1166.41 48.0575 1166.19 49.0603 1161.21 47.0547C1150.66 45.1462 1139.92 47.6693 1129.89 45.6314C1123.42 43.7876 1115.27 47.1841 1108.48 45.2432C1099.84 34.3421 1087.23 51.1952 1080.69 41.5556C1078.36 38.3209 1077 33.1776 1073.64 36.2829C1071.67 37.0269 1069.73 34.1804 1067.79 33.2423C1060.35 32.4012 1056.17 39.5501 1049.09 36.1536C1045.69 42.6231 1042.23 37.7709 1038.83 36.1536C1034.31 34.7303 1028.22 35.7654 1023.86 35.8624C1020.62 32.2395 1018.58 34.1804 1014.8 31.0426C1011.86 29.1665 1008.85 32.6277 1005.84 30.6545C997.3 30.0399 988.469 37.5769 979.767 32.5953C973.045 28.8765 965.451 27.0225 957.771 27.2256C958.806 36.6711 931.408 25.7053 925.618 32.5306C916.722 37.1887 908.053 28.3254 899.319 28.3901C891.879 19.7533 884.698 30.2986 876.999 26.9992C874.706 26.035 872.197 25.6976 869.73 26.0216C867.263 26.3455 864.927 27.3192 862.96 28.843C860.178 31.5279 861.699 30.9456 858.561 30.6868C857.688 39.2589 856.038 31.7219 855.035 30.6868C850.28 34.795 844.781 28.5519 840.155 30.8486C836.759 28.1637 834.106 30.1046 831.227 26.0935C825.987 27.5814 820.617 22.5999 814.439 21.5324C805.737 21.7265 797.101 23.8938 788.884 20.0445C782.027 16.8097 774.457 22.9557 767.794 23.2792C764.138 26.7728 763.297 24.7996 760.224 25.8994C758.51 25.3495 756.99 30.7839 755.21 27.0639C753.049 25.9331 750.646 25.3425 748.207 25.3425C745.768 25.3425 743.365 25.9331 741.204 27.0639C736.74 32.5953 731.985 24.5731 727.553 26.8698C722.442 17.1655 718.237 30.1046 713.256 30.8162C704.134 28.7783 694.268 27.3227 685.081 30.8162C681.361 29.7164 676.865 31.2367 673.274 31.2044C669.683 31.172 668.939 35.1508 665.963 37.4475C659.817 43.0436 648.949 33.2746 642.058 38.0621C638.565 35.7007 636.592 42.9466 632.807 39.9382C626.338 42.2349 626.92 40.8763 622.068 44.7257C616.666 50.9364 605.894 46.0196 600.427 44.1111C596.06 38.2238 593.958 41.3615 592.049 39.5824C590.044 38.8061 589.882 35.2802 586.065 31.5925C582.83 30.9132 580.21 23.4086 575.908 25.123C570.958 21.6295 567.788 26.9345 564.068 26.8698C558.214 33.5334 549.253 27.9049 543.042 27.0315C534.47 25.1877 525.866 28.196 517.164 27.0315C511.115 30.9779 505.034 27.2903 498.953 27.0315C495.718 27.5167 489.248 25.3171 489.443 30.428C483.199 33.1452 476.018 31.6896 469.678 31.0103C469.161 34.8597 470.228 38.5796 469.419 39.5824C463.5 36.6711 457.839 46.0519 451.693 43.6582C447.358 44.5963 442.959 38.709 438.754 43.6582C428.855 45.2109 418.925 40.7469 409.026 43.6582C405.737 44.0285 402.489 44.6999 399.322 45.6638C394.211 47.7664 391.009 53.3625 385.024 49.1573C379.558 50.4835 374.156 47.2811 368.851 48.2192C362.381 48.2192 364.548 50.9364 359.987 51.1305C356.753 55.5298 350.283 48.8985 346.692 51.1305C340.676 44.661 334.562 55.0122 328.545 51.1305C323.37 49.1573 323.014 49.5455 319.1 45.6638C315.154 48.3486 309.396 43.7553 304.802 41.9114C299.562 38.3532 295.422 43.173 290.214 39.6794C286.72 40.8116 285.361 34.8597 281.933 39.453C279.442 39.0648 278.504 40.8763 276.369 44.3699C274.104 51.5834 273.134 47.7987 270.352 45.6314C266.891 47.2488 263.462 43.8199 260.001 45.6314C256.152 41.8791 252.27 50.807 248.388 45.6314C244.668 48.3486 238.684 45.3403 235.449 45.4373C232.214 43.7553 230.176 44.7904 226.78 49.8042C222.801 51.9392 220.99 55.8209 216.72 49.8042C209.066 45.9169 201.103 42.671 192.912 40.1C186.087 42.2996 179.261 36.8652 172.436 40.1C166.516 41.7497 161.955 33.4687 156.262 38.2238C151.539 37.6739 146.752 39.3236 141.997 38.2238C137.436 39.0325 132.875 42.2673 128.346 38.2238C125.305 38.2238 120.389 40.2617 117.768 36.5094C110.264 28.9077 105.703 28.1961 97.5189 26.9992C93.4431 26.5463 89.3026 22.9234 85.2915 26.5787C82.0567 30.1693 78.8219 25.123 75.5872 23.3439C67.6944 20.5944 58.2165 22.2441 53.4938 28.8753C47.3801 36.9299 39.0991 36.5094 29.3948 36.1859C24.7691 32.9512 21.0491 38.1591 16.6175 38.0621C15.6147 34.6656 13.8356 36.3476 12.8975 37.9003C11.1184 38.1915 11.4419 38.5473 10.0833 40.5528C2.90211 45.9225 -4.50549 47.0224 -10.8456 38.0297C-10.8456 38.2238 -13.11 49.9336 -15.4066 57.2766C-17.7033 66.3339 -20 75.6823 -20 76.6851C-14.5009 73.1269 -9.03416 66.1398 -3.21159 65.4605C0.0231705 66.8191 7.43077 62.2257 10.6655 65.4605C15.8088 66.4633 19.0759 72.1888 23.7987 68.21C28.7802 70.8625 33.8264 72.6093 38.6786 67.9836C43.9512 65.784 47.5418 53.6536 53.2997 60.0261C61.8071 59.832 67.0474 58.9263 73.7757 53.039C80.504 47.1517 91.5345 53.2978 99.4274 57.1148C106.609 58.0205 114.243 62.808 121.78 57.9882C129.349 59.929 136.821 59.2821 143.711 60.7701C151.733 67.9513 159.626 71.186 168.781 68.857C177.159 67.2073 184.534 63.5196 193.138 69.2775C197.117 63.9401 200.125 69.0187 204.104 70.9596C212.564 72.343 220.927 74.2662 229.141 76.7175C235.805 78.7554 239.525 88.2009 245.865 87.3275C250.588 96.2554 255.957 83.4457 260.777 87.3275C265.759 84.772 269.543 88.3302 274.751 91.3709C279.151 86.5511 283.938 93.2147 288.37 91.1768C297.039 91.8238 309.784 93.8293 317.483 88.9772C319.941 91.4356 321.397 91.1121 324.179 84.1251C327.64 84.1251 332.039 88.4273 335.597 83.8986C340.061 83.8986 341.873 77.4291 346.11 80.114C348.116 76.8792 349.992 79.8228 352.03 79.8552C352.968 79.8552 354.747 82.7018 356.203 76.0058C359.761 75.8117 364.71 79.2406 368.527 73.3209C371.762 70.9919 374.641 66.5603 377.94 71.5418C381.919 75.5206 382.954 81.0197 387.645 78.3348C389.116 77.9243 390.485 77.2118 391.666 76.2427C392.847 75.2737 393.813 74.0693 394.502 72.7064C399.193 65.4605 406.083 71.9947 411.711 71.0243C422.903 68.4688 434.16 65.137 445.353 71.0243C448.199 69.9244 450.431 71.283 453.148 70.3126C457.257 65.5252 457.03 68.0483 461.624 65.3311C469.322 65.784 477.377 71.8006 485.237 67.4014C489.54 60.9318 493.195 66.8514 497.626 65.4928C498.162 66.1111 498.833 66.5964 499.588 66.9104C500.344 67.2243 501.161 67.3584 501.977 67.3019C502.793 67.2454 503.584 67 504.289 66.5849C504.993 66.1699 505.592 65.5967 506.037 64.9106C509.078 61.8699 507.751 59.735 509.466 56.5972C512.377 53.2007 522.663 52.4244 528.001 54.527C532.788 61.3523 537.705 58.4411 542.363 54.527C549.35 51.6481 554.526 53.4919 560.381 58.5704C563.842 68.8246 565.427 61.2877 569.115 63.7461C572.576 61.7082 574.808 69.0511 577.881 67.8865C583.186 72.2858 589.947 67.5954 596.998 73.418C604.05 75.2295 611.361 77.7526 617.733 72.8681C625.691 74.4208 633.907 71.7036 641.412 71.0566C645.261 65.8163 645.067 67.2396 649.24 69.3098C652.493 68.7482 655.611 67.5737 658.426 65.8487C664.055 72.3182 671.204 70.442 677.123 65.5252C682.817 67.7248 688.607 65.784 694.268 65.5252C701.934 62.9374 710.215 68.3071 718.464 69.1158C726.745 64.8782 734.961 62.6463 742.465 65.6546C744.794 61.7082 746.347 64.0695 748.417 60.5113C748.87 63.7461 752.137 57.2766 752.396 56.759C757.054 52.7479 761.518 58.2793 765.853 58.1176C771.675 59.929 776.398 54.624 781.638 61.9669C786.32 64.1303 790.572 67.122 794.189 70.7978C799.223 71.4922 804.35 70.7406 808.972 68.6306C810.985 68.1649 813.087 68.2496 815.056 68.8757C817.025 69.5017 818.79 70.6461 820.164 72.1888C822.461 76.8792 822.493 78.6583 825.793 74.1296C829.222 77.1703 832.715 63.8755 836.112 67.1749C840.77 64.2636 846.398 66.9808 851.477 65.9134C858.367 67.6601 865.483 75.1971 872.665 67.6601C879.846 65.784 887.027 69.9245 894.079 67.3366C896.925 72.5446 903.007 62.6462 905.368 67.3366C907.729 65.1694 907.6 65.1694 910.058 59.9291C912.517 51.3246 917.531 51.4216 920.571 58.2146C924.465 57.9954 928.357 58.6589 931.958 60.1555C937.23 67.2396 942.632 60.576 947.905 60.3496C952.776 61.0001 957.709 59.7234 961.653 56.7913C969.157 53.5566 973.427 58.5381 979.121 62.5492C982.355 67.4984 982.97 64.8459 986.852 66.528C989.407 70.6684 991.574 66.7221 994.195 70.8625C998.691 69.1481 1004.55 75.7794 1009.27 71.1537C1013.93 72.8681 1016.74 69.8921 1020.88 69.1805C1023.82 70.1832 1025.41 65.1694 1027.67 71.5742C1031.36 78.0437 1031.39 66.7868 1035.83 74.809C1041.39 68.6953 1047.24 74.809 1052.84 74.809C1055.66 78.3025 1058.89 73.4504 1061.67 74.809C1066.14 75.4883 1064.03 73.6444 1067.49 71.5742C1071.67 66.9485 1075.71 62.7433 1081.11 69.3422C1085.09 65.3311 1089.07 67.8219 1093.02 69.3422C1096.25 70.2479 1099.49 68.9217 1102.46 69.6657C1105.31 67.272 1108.09 71.93 1111.2 73.5797C1114.24 78.076 1117.5 72.7387 1120.54 75.5206C1125.98 73.6768 1130.02 81.4402 1135.42 83.6722C1140.83 92.0179 1146.81 83.9957 1152.34 84.2868C1156.71 88.0714 1159.88 83.3811 1164.28 89.1713C1167 80.2433 1169.68 91.1445 1172.27 90.3681C1173.95 89.9476 1175.76 97.9051 1177.67 93.3765C1179.32 96.0613 1181.29 88.3302 1183.01 93.0853C1188.34 92.406 1190.06 92.9236 1194.1 98.7462C1202.67 103.954 1212.7 110.877 1223.22 104.181C1228.75 105.41 1234.25 103.76 1239.78 104.181C1247.31 107.415 1254.82 103.113 1262.42 104.181C1269.96 107.06 1277.46 104.181 1285.06 104.181C1289.53 102.854 1292.57 100.946 1296.61 102.304C1299.85 100.849 1303.08 105.28 1306.32 102.304C1312.01 104.181 1319.97 105.766 1324.79 97.0641C1326.89 93.8293 1327.44 90.1741 1329.28 92.7619C1330.45 94.7674 1331.61 92.7619 1332.78 89.333C1334.72 84.7073 1335.56 81.8931 1335.33 83.6722C1341.41 77.5908 1358.4 83.187 1367.68 79.7581C1374.51 78.5936 1381.23 76.5234 1388.54 78.4966C1392.65 81.3108 1394.72 75.9088 1398.47 75.003C1403.75 73.9032 1410.25 77.5585 1415.65 74.6796C1423.12 73.1592 1430.43 78.723 1437.78 75.5853C1445.12 75.3265 1452.46 73.7738 1459.94 76.5234C1459.94 74.9383 1445.28 48.478 1445.28 47.1841Z" fill="white"/>
</g>
<g filter="url(#filter1_d_973_9114)">
<path d="M1445.28 265.184C1444.51 272.948 1425.65 270.78 1421.22 270.683C1409.99 268.419 1397.38 272.818 1386.47 269.325C1378.45 266.543 1371.34 263.017 1362.96 263.341C1355.94 269.81 1348.34 262.047 1341.61 264.408C1336.95 265.637 1332.52 271.266 1327.76 268.904C1326.53 269.004 1325.34 269.345 1324.24 269.907C1323.3 269.648 1322.85 268.969 1321.65 272.43C1318.41 269.422 1311.07 272.624 1307.84 272.43C1305.73 272.994 1303.51 273.035 1301.38 272.551C1299.25 272.066 1297.27 271.07 1295.61 269.648C1291.6 267.222 1289.82 262.37 1284.77 266.866C1281.54 263.632 1268.6 263.89 1265.36 267.578C1263.52 272.657 1264.59 270.813 1263.75 272.56C1262.91 274.306 1260.51 277.088 1258.15 276.862C1254.43 279.048 1250.22 280.286 1245.91 280.466C1241.59 280.647 1237.3 279.764 1233.41 277.897C1223.7 281.132 1212.15 283.849 1202.74 278.447C1199.5 278.447 1199.34 276.635 1195.95 271.266C1193.39 265.152 1190.32 271.654 1187.6 270.586C1181.9 270.884 1176.18 270.635 1170.52 269.842C1166.41 266.058 1166.19 267.061 1161.21 265.055C1150.66 263.146 1139.92 265.67 1129.89 263.632C1123.42 261.788 1115.27 265.184 1108.48 263.243C1099.84 252.342 1087.23 269.195 1080.69 259.556C1078.36 256.321 1077 251.178 1073.64 254.283C1071.67 255.027 1069.73 252.181 1067.79 251.243C1060.35 250.401 1056.17 257.55 1049.09 254.154C1045.69 260.623 1042.23 255.771 1038.83 254.154C1034.31 252.731 1028.22 253.766 1023.86 253.863C1020.62 250.24 1018.58 252.181 1014.8 249.043C1011.86 247.167 1008.85 250.628 1005.84 248.655C997.3 248.04 988.469 255.577 979.767 250.596C973.045 246.877 965.451 245.023 957.771 245.226C958.806 254.671 931.408 243.706 925.618 250.531C916.722 255.189 908.053 246.326 899.319 246.39C891.879 237.754 884.698 248.299 876.999 244.999C874.706 244.035 872.197 243.698 869.73 244.022C867.263 244.346 864.927 245.319 862.96 246.843C860.178 249.528 861.699 248.946 858.561 248.687C857.688 257.259 856.038 249.722 855.035 248.687C850.28 252.795 844.781 246.552 840.155 248.849C836.759 246.164 834.106 248.105 831.227 244.094C825.987 245.582 820.617 240.6 814.439 239.533C805.737 239.727 797.101 241.894 788.884 238.045C782.027 234.81 774.457 240.956 767.794 241.279C764.138 244.773 763.297 242.8 760.224 243.9C758.51 243.35 756.99 248.784 755.21 245.064C753.049 243.933 750.646 243.343 748.207 243.343C745.768 243.343 743.365 243.933 741.204 245.064C736.74 250.596 731.985 242.573 727.553 244.87C722.442 235.166 718.237 248.105 713.256 248.816C704.134 246.779 694.268 245.323 685.081 248.816C681.361 247.717 676.865 249.237 673.274 249.205C669.683 249.172 668.939 253.151 665.963 255.448C659.817 261.044 648.949 251.275 642.058 256.062C638.565 253.701 636.592 260.947 632.807 257.938C626.338 260.235 626.92 258.877 622.068 262.726C616.666 268.937 605.894 264.02 600.427 262.111C596.06 256.224 593.958 259.362 592.049 257.583C590.044 256.806 589.882 253.28 586.065 249.593C582.83 248.913 580.21 241.409 575.908 243.123C570.958 239.63 567.788 244.935 564.068 244.87C558.214 251.534 549.253 245.905 543.042 245.032C534.47 243.188 525.866 246.196 517.164 245.032C511.115 248.978 505.034 245.291 498.953 245.032C495.718 245.517 489.248 243.317 489.443 248.428C483.199 251.145 476.018 249.69 469.678 249.011C469.161 252.86 470.228 256.58 469.419 257.583C463.5 254.671 457.839 264.052 451.693 261.658C447.358 262.597 442.959 256.709 438.754 261.658C428.855 263.211 418.925 258.747 409.026 261.658C405.737 262.029 402.489 262.7 399.322 263.664C394.211 265.767 391.009 271.363 385.024 267.158C379.558 268.484 374.156 265.281 368.851 266.219C362.381 266.219 364.548 268.937 359.987 269.131C356.753 273.53 350.283 266.899 346.692 269.131C340.676 262.661 334.562 273.012 328.545 269.131C323.37 267.158 323.014 267.546 319.1 263.664C315.154 266.349 309.396 261.755 304.802 259.912C299.562 256.353 295.422 261.173 290.214 257.68C286.72 258.812 285.361 252.86 281.933 257.453C279.442 257.065 278.504 258.877 276.369 262.37C274.104 269.584 273.134 265.799 270.352 263.632C266.891 265.249 263.462 261.82 260.001 263.632C256.152 259.879 252.27 268.807 248.388 263.632C244.668 266.349 238.684 263.341 235.449 263.438C232.214 261.755 230.176 262.791 226.78 267.804C222.801 269.939 220.99 273.821 216.72 267.804C209.066 263.917 201.103 260.671 192.912 258.1C186.087 260.3 179.261 254.865 172.436 258.1C166.516 259.75 161.955 251.469 156.262 256.224C151.539 255.674 146.752 257.324 141.997 256.224C137.436 257.033 132.875 260.267 128.346 256.224C125.305 256.224 120.389 258.262 117.768 254.51C110.264 246.908 105.703 246.196 97.5189 244.999C93.4431 244.547 89.3026 240.924 85.2915 244.579C82.0567 248.169 78.8219 243.123 75.5872 241.344C67.6944 238.595 58.2165 240.244 53.4938 246.876C47.3801 254.93 39.0991 254.51 29.3948 254.186C24.7691 250.951 21.0491 256.159 16.6175 256.062C15.6147 252.666 13.8356 254.348 12.8975 255.901C11.1184 256.192 11.4419 256.548 10.0833 258.553C2.90211 263.923 -4.50549 265.023 -10.8456 256.03C-10.8456 256.224 -13.11 267.934 -15.4066 275.277C-17.7033 284.334 -20 293.683 -20 294.685C-14.5009 291.127 -9.03416 284.14 -3.21159 283.461C0.0231705 284.819 7.43077 280.226 10.6655 283.461C15.8088 284.464 19.0759 290.189 23.7987 286.21C28.7802 288.863 33.8264 290.61 38.6786 285.984C43.9512 283.784 47.5418 271.654 53.2997 278.026C61.8071 277.832 67.0474 276.927 73.7757 271.039C80.504 265.152 91.5345 271.298 99.4274 275.115C106.609 276.021 114.243 280.808 121.78 275.988C129.349 277.929 136.821 277.282 143.711 278.77C151.733 285.951 159.626 289.186 168.781 286.857C177.159 285.208 184.534 281.52 193.138 287.278C197.117 281.94 200.125 287.019 204.104 288.96C212.564 290.343 220.927 292.266 229.141 294.718C235.805 296.756 239.525 306.201 245.865 305.328C250.588 314.256 255.957 301.446 260.777 305.328C265.759 302.772 269.543 306.33 274.751 309.371C279.151 304.551 283.938 311.215 288.37 309.177C297.039 309.824 309.784 311.83 317.483 306.977C319.941 309.436 321.397 309.112 324.179 302.125C327.64 302.125 332.039 306.428 335.597 301.899C340.061 301.899 341.873 295.429 346.11 298.114C348.116 294.879 349.992 297.823 352.03 297.855C352.968 297.855 354.747 300.702 356.203 294.006C359.761 293.812 364.71 297.241 368.527 291.321C371.762 288.992 374.641 284.561 377.94 289.542C381.919 293.521 382.954 299.02 387.645 296.335C389.116 295.925 390.485 295.212 391.666 294.243C392.847 293.274 393.813 292.07 394.502 290.707C399.193 283.461 406.083 289.995 411.711 289.025C422.903 286.469 434.16 283.137 445.353 289.025C448.199 287.925 450.431 289.283 453.148 288.313C457.257 283.525 457.03 286.049 461.624 283.331C469.322 283.784 477.377 289.801 485.237 285.402C489.54 278.932 493.195 284.852 497.626 283.493C498.162 284.111 498.833 284.597 499.588 284.911C500.344 285.225 501.161 285.359 501.977 285.302C502.793 285.246 503.584 285 504.289 284.585C504.993 284.17 505.592 283.597 506.037 282.911C509.078 279.87 507.751 277.735 509.466 274.597C512.377 271.201 522.663 270.425 528.001 272.527C532.788 279.353 537.705 276.441 542.363 272.527C549.35 269.648 554.526 271.492 560.381 276.571C563.842 286.825 565.427 279.288 569.115 281.746C572.576 279.708 574.808 287.051 577.881 285.887C583.186 290.286 589.947 285.596 596.998 291.418C604.05 293.23 611.361 295.753 617.733 290.868C625.691 292.421 633.907 289.704 641.412 289.057C645.261 283.817 645.067 285.24 649.24 287.31C652.493 286.748 655.611 285.574 658.426 283.849C664.055 290.318 671.204 288.442 677.123 283.525C682.817 285.725 688.607 283.784 694.268 283.525C701.934 280.938 710.215 286.307 718.464 287.116C726.745 282.878 734.961 280.646 742.465 283.655C744.794 279.708 746.347 282.07 748.417 278.512C748.87 281.746 752.137 275.277 752.396 274.759C757.054 270.748 761.518 276.28 765.853 276.118C771.675 277.929 776.398 272.624 781.638 279.967C786.32 282.131 790.572 285.122 794.189 288.798C799.223 289.492 804.35 288.741 808.972 286.631C810.985 286.165 813.087 286.25 815.056 286.876C817.025 287.502 818.79 288.646 820.164 290.189C822.461 294.879 822.493 296.659 825.793 292.13C829.222 295.171 832.715 281.876 836.112 285.175C840.77 282.264 846.398 284.981 851.477 283.914C858.367 285.66 865.483 293.197 872.665 285.66C879.846 283.784 887.027 287.925 894.079 285.337C896.925 290.545 903.007 280.646 905.368 285.337C907.729 283.17 907.6 283.17 910.058 277.929C912.517 269.325 917.531 269.422 920.571 276.215C924.465 275.996 928.357 276.659 931.958 278.156C937.23 285.24 942.632 278.576 947.905 278.35C952.776 279 957.709 277.724 961.653 274.792C969.157 271.557 973.427 276.538 979.121 280.549C982.355 285.499 982.97 282.846 986.852 284.528C989.407 288.669 991.574 284.722 994.195 288.863C998.691 287.148 1004.55 293.78 1009.27 289.154C1013.93 290.868 1016.74 287.892 1020.88 287.181C1023.82 288.183 1025.41 283.17 1027.67 289.574C1031.36 296.044 1031.39 284.787 1035.83 292.809C1041.39 286.696 1047.24 292.809 1052.84 292.809C1055.66 296.303 1058.89 291.451 1061.67 292.809C1066.14 293.489 1064.03 291.645 1067.49 289.574C1071.67 284.949 1075.71 280.744 1081.11 287.342C1085.09 283.331 1089.07 285.822 1093.02 287.342C1096.25 288.248 1099.49 286.922 1102.46 287.666C1105.31 285.272 1108.09 289.93 1111.2 291.58C1114.24 296.076 1117.5 290.739 1120.54 293.521C1125.98 291.677 1130.02 299.44 1135.42 301.672C1140.83 310.018 1146.81 301.996 1152.34 302.287C1156.71 306.072 1159.88 301.381 1164.28 307.172C1167 298.244 1169.68 309.145 1172.27 308.368C1173.95 307.948 1175.76 315.905 1177.67 311.377C1179.32 314.062 1181.29 306.33 1183.01 311.086C1188.34 310.406 1190.06 310.924 1194.1 316.746C1202.67 321.954 1212.7 328.877 1223.22 322.181C1228.75 323.41 1234.25 321.76 1239.78 322.181C1247.31 325.416 1254.82 321.113 1262.42 322.181C1269.96 325.06 1277.46 322.181 1285.06 322.181C1289.53 320.855 1292.57 318.946 1296.61 320.305C1299.85 318.849 1303.08 323.281 1306.32 320.305C1312.01 322.181 1319.97 323.766 1324.79 315.064C1326.89 311.83 1327.44 308.174 1329.28 310.762C1330.45 312.768 1331.61 310.762 1332.78 307.333C1334.72 302.708 1335.56 299.893 1335.33 301.672C1341.41 295.591 1358.4 301.187 1367.68 297.758C1374.51 296.594 1381.23 294.524 1388.54 296.497C1392.65 299.311 1394.72 293.909 1398.47 293.003C1403.75 291.903 1410.25 295.559 1415.65 292.68C1423.12 291.159 1430.43 296.723 1437.78 293.586C1445.12 293.327 1452.46 291.774 1459.94 294.524C1459.94 292.939 1445.28 266.478 1445.28 265.184Z" fill="white"/>
</g>
<defs>
<filter id="filter0_d_973_9114" x="-30" y="17.1067" width="1499.94" height="107.838" filterUnits="userSpaceOnUse" color-interpolation-filters="sRGB">
<feFlood flood-opacity="0" result="BackgroundImageFix"/>
<feColorMatrix in="SourceAlpha" type="matrix" values="0 0 0 0 0 0 0 0 0 0 0 0 0 0 0 0 0 0 127 0" result="hardAlpha"/>
<feOffset dy="8"/>
<feGaussianBlur stdDeviation="5"/>
<feComposite in2="hardAlpha" operator="out"/>
<feColorMatrix type="matrix" values="0 0 0 0 1 0 0 0 0 1 0 0 0 0 1 0 0 0 0.25 0"/>
<feBlend mode="normal" in2="BackgroundImageFix" result="effect1_dropShadow_973_9114"/>
<feBlend mode="normal" in="SourceGraphic" in2="effect1_dropShadow_973_9114" result="shape"/>
</filter>
<filter id="filter1_d_973_9114" x="-30" y="219.107" width="1499.94" height="107.838" filterUnits="userSpaceOnUse" color-interpolation-filters="sRGB">
<feFlood flood-opacity="0" result="BackgroundImageFix"/>
<feColorMatrix in="SourceAlpha" type="matrix" values="0 0 0 0 0 0 0 0 0 0 0 0 0 0 0 0 0 0 127 0" result="hardAlpha"/>
<feOffset dy="-8"/>
<feGaussianBlur stdDeviation="5"/>
<feComposite in2="hardAlpha" operator="out"/>
<feColorMatrix type="matrix" values="0 0 0 0 1 0 0 0 0 1 0 0 0 0 1 0 0 0 0.25 0"/>
<feBlend mode="normal" in2="BackgroundImageFix" result="effect1_dropShadow_973_9114"/>
<feBlend mode="normal" in="SourceGraphic" in2="effect1_dropShadow_973_9114" result="shape"/>
</filter>
</defs>
</svg>
